# xmcd
#
# Track frame offsets: 
#        183
#        53558
#        68915
#        79075
#        95883
#        123333
#        155533
#        186370
#        206133
#        227103
#
# Disc length: 3317 seconds
#
# Revision: 21
# Processed by: cddbd v1.5.2PL0 Copyright (c) Steve Scherf et al.
# Submitted via: ExactAudioCopy v1.3
#
DISCID=8b0cf30a
DTITLE=Herbert von Karajan ~ Berliner Philharmoniker - Albinoni - Adag
DTITLE=io - Pachelbel - Canon [dBP-T0-FLAC]
DYEAR=1984
DGENRE=Classical
TTITLE0=Tomaso Albinoni: Adagio G-minor for Strings and Organ
TTITLE1=Antonio Vivaldi: Concerto for Flute, Strings and Harpsichord G
TTITLE1=minor op.10 Nr.2 "La Notte" [Largo - Fantasmi. Presto]
TTITLE2=Antonio Vivaldi: Concerto for Flute, Strings and Harpsichord G
TTITLE2=minor op.10 Nr.2 "La Notte" [Largo - Presto]
TTITLE3=Antonio Vivaldi: Concerto for Flute, Strings and Harpsichord G
TTITLE3=minor op.10 Nr.2 "La Notte" [Il sonno. Largo - Allegro]
TTITLE4=J.S.Bach: Air from Suite for Orchestra Nr.3 D-major BWV 1068
TTITLE5=Johann Pachelbel: Canon and Gigue D-major for 3 Violins and Ba
TTITLE5=sso Continuo
TTITLE6=C.W.Gluck: Dance of the Blessed Spirits from Opera "Orpheus an
TTITLE6=d Eurydice"
TTITLE7=W.A.Mozart: Serenata notturna D-major KV 239 [Marcia. Maestoso
TTITLE7=]
TTITLE8=W.A.Mozart: Serenata notturna D-major KV 239 [Menuetto]
TTITLE9=W.A.Mozart: Serenata notturna D-majorr KV 239 [Rondeau. Allegr
TTITLE9=etto - Adagio - Allegro]
EXTD=
EXTT0=
EXTT1=
EXTT2=
EXTT3=
EXTT4=
EXTT5=
EXTT6=
EXTT7=
EXTT8=
EXTT9=
PLAYORDER=
